<?xml version="1.0" encoding="UTF-8"?>
<svg id="Layer_3" data-name="Layer 3" xmlns="http://www.w3.org/2000/svg" viewBox="0 0 1080 1080">
  <defs>
    <style>
      .cls-1 {
        fill: #683bc1;
      }

      .cls-2 {
        fill: #b59ae4;
      }
    </style>
  </defs>
  <g>
    <path class="cls-1" d="m265.88,399.27c19.64,0,39.29-.27,58.92.15,6.48.14,7.88-1.97,7.88-8.13-.09-105.51.11-211.03.04-316.54,0-10.95,3.3-19.76,12.44-26.01,2.69-1.84,5.65-4.09,9.05-2.69,3.99,1.65,2.58,5.63,2.58,8.7.12,76.48.17,152.97.23,229.45.02,36.35.16,72.7-.1,109.05-.04,5.69,1.46,7.21,7.12,7.1,14.87-.31,14.88-.02,14.89,14.86,0,11.86-.15,23.73.09,35.59.09,4.34-1.39,5.62-5.64,5.59-5.2-.03-12.08-2.47-15.21,1.11-3.29,3.77-1,10.62-1.03,16.11-.11,18.93.21,37.87-.08,56.79-.25,16.65,12.26,29.39,26.06,32.99,15.42,4.03,32.41-4.83,38.75-19.45,2.71-6.23,3.32-13.03,3.32-19.86.07-154.23.17-308.46.26-462.69q0-12.45,12.55-12.45c61.34.03,122.69-.69,184.01.35,39.24.67,78.04,5.95,114.22,22.95,45.68,21.46,74.36,56.73,83.74,106.39,4.79,25.36,6.6,51.36,1.83,76.97-6.51,34.97-19.43,66.77-46,92.32-30.18,29.01-66.59,43.99-106.64,52.3-31.08,6.45-62.54,4.32-93.9,4.7-7.57.09-15.16.29-22.71-.09-4.72-.23-6.04,1.33-5.94,5.98.29,14.13.12,28.27.13,42.41.01,42.41-.1,84.82.18,127.22.04,6.1-1.76,7.51-7.62,7.48-49.22-.23-98.44-.15-147.67-.13-28.71,0-51.16-19.28-57.83-45.03-1.36-5.25-1.25-10.95-1.28-16.45-.12-20.19-.34-40.4.16-60.58.18-7.28-1.18-9.99-9.28-9.7-19.61.7-39.25.23-60.18-1.45,7.91-7.54,15.68-15.24,23.81-22.53,3.66-3.28,3.99-5.42.12-8.81-7.92-6.94-15.44-14.32-23.13-21.52.62-.82,1.25-1.65,1.87-2.47Zm280.7-172.64h.1c0,24.97,0,49.94,0,74.9,0,3.15-.95,6.73,4.5,6.47,32.03-1.52,64.4,3.71,96.09-4.7,15.6-4.14,29.6-11.2,39.84-24.01,18.94-23.68,21.18-50.93,15.6-79.41-4.59-23.42-19.86-37.9-41.49-45.94-15.06-5.6-31.04-7.52-46.97-8.05-20.15-.68-40.35.06-60.52-.42-6.39-.15-7.34,2.19-7.28,7.77.26,24.46.11,48.93.11,73.39Z"/>
    <path class="cls-2" d="m394.99,303.44c0,76.94,0,153.87,0,230.81,0,2.27.09,4.55-.14,6.8-.25,2.4-1.77,3.33-4.22,3.2-2.19-.11-3.26-1.12-3.37-3.2-.1-2.01-.09-4.03-.09-6.05.1-154.63.2-309.26.3-463.88,0-.5-.09-1.03.02-1.51.69-3.05-2.01-8.33,3.5-8.33,5.29,0,3.65,5.15,3.65,8.33.08,77.94.06,155.89.06,233.83h.28Z"/>
    <path class="cls-2" d="m407.01,535.1c0-3.35,0-5.85,0-8.35.09-151.88.18-303.76.27-455.64,0-.25-.05-.51,0-.76.74-3.29-2.12-9.02,3.62-9.05,5.7-.04,3.66,5.67,3.67,8.99.18,150.87.23,301.74.36,452.61,0,5.32-.36,10.08-7.92,12.19Z"/>
    <path class="cls-2" d="m375.07,228.41c0,51.72,0,103.44,0,155.16,0,1.51-.09,3.03.01,4.54.2,2.98-.53,4.74-4.1,4.68-3.28-.05-3.71-1.79-3.6-4.35.06-1.51,0-3.03,0-4.54.09-104.45.15-208.9.38-313.36,0-3.22-2.43-9.12,3.18-9.15,6.03-.04,3.78,6.06,3.79,9.57.14,52.48.1,104.96.1,157.43h.22Z"/>
    <path class="cls-2" d="m367.31,505.65c1.09-12.28-1.32-24.46-1.08-36.71.06-2.88-.29-5.3,4.09-5.26,4.33.03,4.86,1.99,4.84,5.54-.09,19.96.02,39.93-.09,59.89-.01,1.86,1.46,5.22-2.02,5.27-2.91.04-5.2-2.34-5.42-5.38-.38-5.25-.26-10.54-.32-15.81-.03-2.51,0-5.03,0-7.54Z"/>
  </g>
  <g>
    <path class="cls-2" d="m34.19,679.33h67.61c23.15,0,40.39,3.33,51.74,10,11.34,6.67,17.02,18.59,17.02,35.76,0,19.01-6.9,32.12-20.7,39.32-12.88,6.59-30.89,9.89-54.04,9.89h-1.84v61.63h28.74v4.37H34.19v-4.37h14.95v-152.24h-14.95v-4.37Zm59.79,4.37v86.24h4.83c9.2,0,15.56-3.14,19.09-9.43,3.53-6.28,5.29-16.48,5.29-30.59v-11.04c0-13.03-1.65-22.15-4.94-27.37-3.3-5.21-9.31-7.82-18.05-7.82h-6.21Z"/>
    <path class="cls-2" d="m182.29,679.33h70.14v4.37h-12.65v152.24h12.65v4.37h-70.14v-4.37h12.65v-152.24h-12.65v-4.37Z"/>
    <path class="cls-2" d="m263,679.33h119.58l2.3,45.53h-4.14c-6.44-15.48-13.19-26.1-20.24-31.85-7.05-5.75-17.4-8.62-31.04-8.62h-8.05v71.06h7.82c7.2,0,13.26-2.72,18.17-8.16,4.91-5.44,8.35-12.76,10.35-21.96h3.45v68.07h-3.91c-2.76-11.5-6.48-19.7-11.15-24.61-4.68-4.91-11.08-7.36-19.2-7.36h-5.52v73.82h8.74c14.1,0,26.1-4.21,35.99-12.65,9.89-8.43,16.67-19.24,20.35-32.43h4.6l-1.84,50.13h-126.25v-5.06h13.57v-150.86h-13.57v-5.06Z"/>
    <path class="cls-2" d="m477.1,758.9h-12.19v77.04h14.95v4.37h-74.74v-4.37h14.95v-152.24h-14.95v-4.37h69.45c19.93,0,34.07,1.04,42.43,3.11,8.35,2.07,14.22,4.56,17.59,7.47,7.36,5.98,11.04,15.49,11.04,28.51s-3.22,22.35-9.66,27.94c-6.44,5.6-16.25,8.93-29.44,10v.69c12.42,1.69,21.08,5.37,25.99,11.04,4.91,5.67,7.36,15.18,7.36,28.52v12.19c0,7.97.42,13.34,1.27,16.1.84,2.76,2.64,4.14,5.4,4.14s4.94-1.26,6.55-3.79c1.61-2.53,3.11-7.86,4.48-15.98l3.91.46c-1.69,13.03-4.64,21.77-8.85,26.22-4.22,4.45-12.61,6.67-25.18,6.67s-21.5-2.95-26.79-8.85c-5.29-5.9-7.93-16.98-7.93-33.23v-16.79c0-8.58-1.11-14.87-3.33-18.86-2.22-3.99-6.32-5.98-12.3-5.98Zm-12.19-75.2v70.83h7.36c8.74,0,15.21-2.68,19.43-8.05,4.22-5.37,6.33-14.1,6.33-26.22v-6.67c0-12.11-2.04-20.12-6.09-24.03-4.06-3.91-10.54-5.86-19.43-5.86h-7.59Z"/>
    <path class="cls-2" d="m641.76,758.9h-12.19v77.04h14.95v4.37h-74.74v-4.37h14.95v-152.24h-14.95v-4.37h69.45c19.93,0,34.07,1.04,42.43,3.11,8.35,2.07,14.22,4.56,17.59,7.47,7.36,5.98,11.04,15.49,11.04,28.51s-3.22,22.35-9.66,27.94c-6.44,5.6-16.25,8.93-29.44,10v.69c12.42,1.69,21.08,5.37,25.99,11.04,4.91,5.67,7.36,15.18,7.36,28.52v12.19c0,7.97.42,13.34,1.27,16.1.84,2.76,2.64,4.14,5.4,4.14s4.94-1.26,6.55-3.79c1.61-2.53,3.11-7.86,4.48-15.98l3.91.46c-1.69,13.03-4.64,21.77-8.85,26.22-4.22,4.45-12.61,6.67-25.18,6.67s-21.5-2.95-26.79-8.85c-5.29-5.9-7.93-16.98-7.93-33.23v-16.79c0-8.58-1.11-14.87-3.33-18.86-2.22-3.99-6.32-5.98-12.3-5.98Zm-12.19-75.2v70.83h7.36c8.74,0,15.21-2.68,19.43-8.05,4.22-5.37,6.33-14.1,6.33-26.22v-6.67c0-12.11-2.04-20.12-6.09-24.03-4.06-3.91-10.54-5.86-19.43-5.86h-7.59Z"/>
    <path class="cls-2" d="m735.81,679.33h119.58l2.3,45.53h-4.14c-6.44-15.48-13.19-26.1-20.24-31.85-7.05-5.75-17.4-8.62-31.04-8.62h-8.05v71.06h7.82c7.2,0,13.26-2.72,18.17-8.16,4.91-5.44,8.35-12.76,10.35-21.96h3.45v68.07h-3.91c-2.76-11.5-6.48-19.7-11.15-24.61-4.68-4.91-11.08-7.36-19.2-7.36h-5.52v73.82h8.74c14.1,0,26.1-4.21,35.99-12.65,9.89-8.43,16.67-19.24,20.35-32.43h4.6l-1.84,50.13h-126.25v-5.06h13.57v-150.86h-13.57v-5.06Z"/>
    <path class="cls-1" d="m892.65,729.7l-6.67-61.17c6.13-3.06,11.11-4.6,14.95-4.6,5.21,0,7.82,2.84,7.82,8.51,0,3.53-.69,8.59-2.07,15.18l-9.2,42.09h-4.83Z"/>
    <path class="cls-2" d="m992,837.78c7.66,0,14.45-2.07,20.35-6.21,5.9-4.14,8.85-10.39,8.85-18.74s-3.18-14.75-9.54-19.2c-6.37-4.45-15.41-8.31-27.14-11.61-11.73-3.29-20.24-6.17-25.53-8.62-5.29-2.45-10.31-5.67-15.06-9.66-9.51-7.97-14.26-20.31-14.26-37.02,0-13.64,4.86-25.37,14.6-35.19,9.73-9.81,23.03-14.72,39.9-14.72,8.12,0,16.59,1.19,25.41,3.57,8.81,2.38,14.29,3.57,16.44,3.57s4.06-1.53,5.75-4.6h2.53l1.61,46.45h-3.68c-7.36-13.34-15.06-24.03-23.11-32.08s-16.79-12.07-26.22-12.07-16.75,2.19-21.96,6.55c-5.21,4.37-7.82,10.2-7.82,17.48s3.11,12.88,9.31,16.79c6.21,3.91,13.83,7.09,22.88,9.54,9.05,2.45,14.98,4.14,17.82,5.06,2.84.92,6.36,2.18,10.58,3.79,4.21,1.61,7.66,3.3,10.35,5.06,2.68,1.76,5.52,3.99,8.51,6.67,2.99,2.68,5.33,5.63,7.01,8.85,4.14,7.36,6.21,16.1,6.21,26.22,0,16.56-5.18,29.86-15.52,39.9-10.35,10.04-23.96,15.06-40.82,15.06-8.74,0-18.74-1.15-30.01-3.45-11.27-2.3-17.52-3.45-18.74-3.45-2.15,0-4.22,2.3-6.21,6.9h-3.22l-2.3-54.73h3.91c6.74,13.34,15.37,24.99,25.87,34.96,10.5,9.97,21.58,14.95,33.23,14.95Z"/>
  </g>
  <g>
    <path class="cls-1" d="m34.19,872.98h81.84v5h-24.1v149.13h8.18c12.88,0,23.15-3.94,30.8-11.82,7.65-7.88,15.42-20.01,23.3-36.37h4.77l-4.32,53.19H34.19v-5h13.41v-149.13h-13.41v-5Z"/>
    <path class="cls-1" d="m177.41,872.98h69.34v4.32h-12.5v150.49h12.5v4.32h-69.34v-4.32h12.5v-150.49h-12.5v-4.32Z"/>
    <path class="cls-1" d="m264.02,872.98h67.97c21.06,0,36.86,2.84,47.4,8.53,10.53,5.68,15.8,15.27,15.8,28.76,0,20.77-12.5,33.19-37.51,37.28v.45c30.31,3.79,45.47,16.98,45.47,39.56,0,16.52-6.21,28.08-18.64,34.67-12.43,6.59-30.31,9.89-53.65,9.89h-66.83v-4.32h14.78v-150.49h-14.78v-4.32Zm59.11,4.32v70.02h5.91c7.88,0,13.37-2.39,16.48-7.16,3.1-4.78,4.66-12.08,4.66-21.94v-10.68c0-11.21-1.36-19.06-4.09-23.53-2.73-4.47-7.96-6.71-15.69-6.71h-7.27Zm0,74.34v76.16h10.68c8.33,0,14.17-2.88,17.5-8.64,3.33-5.76,5-14.24,5-25.46v-12.05c0-10-2.05-17.5-6.14-22.51-4.09-5-11.37-7.5-21.82-7.5h-5.23Z"/>
    <path class="cls-1" d="m490.44,951.64h-12.05v76.16h14.78v4.32h-73.88v-4.32h14.78v-150.49h-14.78v-4.32h68.65c19.7,0,33.68,1.02,41.94,3.07,8.26,2.05,14.06,4.51,17.39,7.39,7.27,5.91,10.91,15.31,10.91,28.19s-3.18,22.09-9.55,27.62c-6.37,5.53-16.07,8.83-29.1,9.89v.68c12.28,1.67,20.84,5.31,25.69,10.91,4.85,5.61,7.27,15,7.27,28.19v12.05c0,7.88.42,13.19,1.25,15.91.83,2.73,2.61,4.09,5.34,4.09s4.89-1.25,6.48-3.75c1.59-2.5,3.07-7.77,4.43-15.8l3.86.45c-1.67,12.88-4.59,21.52-8.75,25.92-4.17,4.39-12.47,6.59-24.89,6.59s-21.26-2.91-26.49-8.75c-5.23-5.83-7.84-16.78-7.84-32.85v-16.6c0-8.49-1.1-14.7-3.3-18.64-2.2-3.94-6.25-5.91-12.16-5.91Zm-12.05-74.34v70.02h7.27c8.64,0,15.04-2.65,19.21-7.96,4.17-5.3,6.25-13.94,6.25-25.91v-6.59c0-11.97-2.01-19.89-6.03-23.76-4.02-3.86-10.42-5.8-19.21-5.8h-7.5Z"/>
    <path class="cls-1" d="m681.4,1027.79l-16.59-49.1h-45.01l-17.5,49.1h17.05v4.32h-34.78v-4.32h10.68l57.97-156.18h18.64l57.29,156.18h10.46v4.32h-74.34v-4.32h16.14Zm-38.19-113.67l-21.37,59.56h41.15l-19.78-59.56Z"/>
    <path class="cls-1" d="m822.35,951.64h-12.05v76.16h14.78v4.32h-73.88v-4.32h14.78v-150.49h-14.78v-4.32h68.65c19.7,0,33.68,1.02,41.94,3.07,8.26,2.05,14.06,4.51,17.39,7.39,7.27,5.91,10.91,15.31,10.91,28.19s-3.18,22.09-9.55,27.62c-6.37,5.53-16.07,8.83-29.1,9.89v.68c12.28,1.67,20.84,5.31,25.69,10.91,4.85,5.61,7.27,15,7.27,28.19v12.05c0,7.88.42,13.19,1.25,15.91.83,2.73,2.61,4.09,5.34,4.09s4.89-1.25,6.48-3.75c1.59-2.5,3.07-7.77,4.43-15.8l3.86.45c-1.67,12.88-4.59,21.52-8.75,25.92-4.17,4.39-12.47,6.59-24.89,6.59s-21.26-2.91-26.49-8.75c-5.23-5.83-7.84-16.78-7.84-32.85v-16.6c0-8.49-1.1-14.7-3.3-18.64-2.2-3.94-6.25-5.91-12.16-5.91Zm-12.05-74.34v70.02h7.27c8.64,0,15.04-2.65,19.21-7.96,4.17-5.3,6.25-13.94,6.25-25.91v-6.59c0-11.97-2.01-19.89-6.03-23.76-4.02-3.86-10.42-5.8-19.21-5.8h-7.5Z"/>
    <path class="cls-1" d="m991.71,947.77l32.28-71.15h-22.96v-3.64h44.78v3.64h-15l-34.33,75.93v75.25h13.87v4.32h-72.06v-4.32h13.87v-70.93l-38.65-80.25h-10.68v-3.64h72.75v3.64h-14.78l30.92,71.15Z"/>
  </g>
</svg>