<?xml version="1.0" encoding="UTF-8"?>
<svg id="Layer_3" data-name="Layer 3" xmlns="http://www.w3.org/2000/svg" viewBox="0 0 1080 1080">
  <defs>
    <style>
      .cls-1 {
        fill: #683bc1;
      }

      .cls-2 {
        fill: #b59ae4;
      }
    </style>
  </defs>
  <g>
    <path class="cls-1" d="m84.79,579.4c9.38,0,18.77-.13,28.15.07,3.1.07,3.77-.94,3.76-3.88-.04-50.4.05-100.81.02-151.21,0-5.23,1.58-9.44,5.94-12.42,1.28-.88,2.7-1.96,4.32-1.28,1.9.79,1.23,2.69,1.23,4.16.06,36.54.08,73.07.11,109.61.01,17.36.08,34.73-.05,52.09-.02,2.72.7,3.45,3.4,3.39,7.11-.15,7.11,0,7.12,7.1,0,5.67-.07,11.34.04,17,.04,2.07-.66,2.69-2.7,2.67-2.48-.02-5.77-1.18-7.27.53-1.57,1.8-.48,5.07-.49,7.69-.05,9.04.1,18.09-.04,27.13-.12,7.95,5.86,14.04,12.45,15.76,7.37,1.92,15.48-2.31,18.51-9.29,1.29-2.98,1.59-6.23,1.59-9.48.03-73.68.08-147.35.12-221.03q0-5.95,6-5.95c29.3.01,58.61-.33,87.9.17,18.75.32,37.28,2.84,54.56,10.96,21.82,10.25,35.52,27.1,40,50.82,2.29,12.12,3.15,24.54.88,36.77-3.11,16.7-9.28,31.9-21.97,44.1-14.42,13.86-31.81,21.01-50.94,24.99-14.85,3.08-29.88,2.07-44.86,2.24-3.62.04-7.24.14-10.85-.04-2.25-.11-2.88.64-2.84,2.86.14,6.75.06,13.5.06,20.26,0,20.26-.05,40.52.09,60.77.02,2.91-.84,3.59-3.64,3.58-23.51-.11-47.03-.07-70.54-.06-13.72,0-24.44-9.21-27.63-21.51-.65-2.51-.6-5.23-.61-7.86-.06-9.65-.16-19.3.08-28.94.09-3.48-.57-4.77-4.43-4.63-9.37.34-18.75.11-28.75-.69,3.78-3.6,7.49-7.28,11.37-10.76,1.75-1.57,1.91-2.59.06-4.21-3.78-3.31-7.38-6.84-11.05-10.28.3-.39.59-.79.89-1.18Zm134.09-82.47h.05c0,11.93,0,23.85,0,35.78,0,1.51-.46,3.22,2.15,3.09,15.3-.73,30.76,1.77,45.9-2.24,7.45-1.98,14.14-5.35,19.03-11.47,9.05-11.31,10.12-24.33,7.45-37.94-2.19-11.19-9.49-18.11-19.82-21.95-7.19-2.67-14.83-3.59-22.44-3.85-9.63-.32-19.28.03-28.91-.2-3.05-.07-3.51,1.05-3.48,3.71.13,11.68.05,23.37.05,35.06Z"/>
    <path class="cls-2" d="m146.47,533.63c0,36.75,0,73.5,0,110.26,0,1.08.05,2.18-.06,3.25-.12,1.15-.85,1.59-2.02,1.53-1.05-.05-1.56-.54-1.61-1.53-.05-.96-.04-1.93-.04-2.89.05-73.87.1-147.73.14-221.6,0-.24-.04-.49,0-.72.33-1.46-.96-3.98,1.67-3.98,2.53,0,1.74,2.46,1.75,3.98.04,37.23.03,74.47.03,111.7h.13Z"/>
    <path class="cls-2" d="m152.21,644.29c0-1.6,0-2.79,0-3.99.04-72.55.08-145.11.13-217.66,0-.12-.02-.25,0-.36.35-1.57-1.02-4.31,1.73-4.32,2.72-.02,1.75,2.71,1.75,4.29.08,72.07.11,144.14.17,216.21,0,2.54-.17,4.82-3.78,5.83Z"/>
    <path class="cls-2" d="m136.95,497.78c0,24.71,0,49.41,0,74.12,0,.72-.04,1.45,0,2.17.1,1.42-.25,2.26-1.96,2.24-1.57-.02-1.77-.85-1.72-2.08.03-.72,0-1.45,0-2.17.04-49.9.07-99.79.18-149.69,0-1.54-1.16-4.35,1.52-4.37,2.88-.02,1.81,2.89,1.81,4.57.07,25.07.05,50.14.05,75.21h.1Z"/>
    <path class="cls-2" d="m133.25,630.22c.52-5.87-.63-11.68-.52-17.54.03-1.37-.14-2.53,1.95-2.51,2.07.02,2.32.95,2.31,2.65-.04,9.54,0,19.07-.04,28.61,0,.89.7,2.49-.96,2.52-1.39.02-2.48-1.12-2.59-2.57-.18-2.51-.12-5.03-.15-7.55-.01-1.2,0-2.4,0-3.6Z"/>
  </g>
  <g>
    <g>
      <path class="cls-2" d="m398.99,438.63h39.93c13.67,0,23.86,1.97,30.56,5.91,6.7,3.94,10.05,10.98,10.05,21.12,0,11.23-4.07,18.97-12.22,23.23-7.61,3.89-18.25,5.84-31.92,5.84h-1.09v36.4h16.98v2.58h-52.29v-2.58h8.83v-89.92h-8.83v-2.58Zm35.31,2.58v50.93h2.85c5.43,0,9.19-1.85,11.27-5.57,2.08-3.71,3.12-9.73,3.12-18.06v-6.52c0-7.7-.97-13.08-2.92-16.16-1.95-3.08-5.5-4.62-10.66-4.62h-3.67Z"/>
      <path class="cls-2" d="m486.46,438.63h41.43v2.58h-7.47v89.92h7.47v2.58h-41.43v-2.58h7.47v-89.92h-7.47v-2.58Z"/>
      <path class="cls-2" d="m534.14,438.63h70.63l1.36,26.89h-2.45c-3.8-9.14-7.79-15.41-11.95-18.81-4.16-3.4-10.28-5.09-18.34-5.09h-4.75v41.97h4.62c4.26,0,7.83-1.61,10.73-4.82,2.9-3.21,4.93-7.54,6.11-12.97h2.04v40.2h-2.31c-1.63-6.79-3.83-11.63-6.59-14.53-2.76-2.9-6.54-4.35-11.34-4.35h-3.26v43.6h5.16c8.33,0,15.42-2.49,21.26-7.47,5.84-4.98,9.85-11.36,12.02-19.15h2.72l-1.09,29.61h-74.57v-2.99h8.01v-89.1h-8.01v-2.99Z"/>
      <path class="cls-2" d="m660.59,485.62h-7.2v45.5h8.83v2.58h-44.14v-2.58h8.83v-89.92h-8.83v-2.58h41.02c11.77,0,20.12.61,25.06,1.83,4.93,1.22,8.4,2.7,10.39,4.41,4.35,3.53,6.52,9.15,6.52,16.84s-1.9,13.2-5.71,16.5c-3.8,3.31-9.6,5.28-17.39,5.91v.41c7.33,1,12.45,3.17,15.35,6.52,2.9,3.35,4.35,8.96,4.35,16.84v7.2c0,4.71.25,7.88.75,9.51.5,1.63,1.56,2.45,3.19,2.45s2.92-.75,3.87-2.24c.95-1.49,1.83-4.64,2.65-9.44l2.31.27c-1,7.7-2.74,12.86-5.23,15.48-2.49,2.63-7.45,3.94-14.87,3.94s-12.7-1.74-15.82-5.23c-3.12-3.48-4.69-10.03-4.69-19.63v-9.92c0-5.07-.66-8.78-1.97-11.14-1.31-2.35-3.74-3.53-7.27-3.53Zm-7.2-44.41v41.83h4.35c5.16,0,8.99-1.58,11.48-4.75,2.49-3.17,3.74-8.33,3.74-15.48v-3.94c0-7.15-1.2-11.88-3.6-14.19-2.4-2.31-6.23-3.46-11.48-3.46h-4.48Z"/>
      <path class="cls-2" d="m757.84,485.62h-7.2v45.5h8.83v2.58h-44.14v-2.58h8.83v-89.92h-8.83v-2.58h41.02c11.77,0,20.12.61,25.06,1.83,4.93,1.22,8.4,2.7,10.39,4.41,4.35,3.53,6.52,9.15,6.52,16.84s-1.9,13.2-5.71,16.5c-3.8,3.31-9.6,5.28-17.39,5.91v.41c7.33,1,12.45,3.17,15.35,6.52,2.9,3.35,4.35,8.96,4.35,16.84v7.2c0,4.71.25,7.88.75,9.51.5,1.63,1.56,2.45,3.19,2.45s2.92-.75,3.87-2.24c.95-1.49,1.83-4.64,2.65-9.44l2.31.27c-1,7.7-2.74,12.86-5.23,15.48-2.49,2.63-7.45,3.94-14.87,3.94s-12.7-1.74-15.82-5.23c-3.12-3.48-4.69-10.03-4.69-19.63v-9.92c0-5.07-.66-8.78-1.97-11.14-1.31-2.35-3.74-3.53-7.27-3.53Zm-7.2-44.41v41.83h4.35c5.16,0,8.99-1.58,11.48-4.75,2.49-3.17,3.74-8.33,3.74-15.48v-3.94c0-7.15-1.2-11.88-3.6-14.19-2.4-2.31-6.23-3.46-11.48-3.46h-4.48Z"/>
      <path class="cls-2" d="m813.39,438.63h70.63l1.36,26.89h-2.45c-3.8-9.14-7.79-15.41-11.95-18.81-4.16-3.4-10.28-5.09-18.34-5.09h-4.75v41.97h4.62c4.26,0,7.83-1.61,10.73-4.82,2.9-3.21,4.93-7.54,6.11-12.97h2.04v40.2h-2.31c-1.63-6.79-3.83-11.63-6.59-14.53-2.76-2.9-6.54-4.35-11.34-4.35h-3.26v43.6h5.16c8.33,0,15.42-2.49,21.26-7.47,5.84-4.98,9.85-11.36,12.02-19.15h2.72l-1.09,29.61h-74.57v-2.99h8.01v-89.1h-8.01v-2.99Z"/>
      <path class="cls-1" d="m906.02,468.37l-3.94-36.13c3.62-1.81,6.56-2.72,8.83-2.72,3.08,0,4.62,1.68,4.62,5.02,0,2.08-.41,5.07-1.22,8.96l-5.43,24.86h-2.85Z"/>
      <path class="cls-2" d="m964.7,532.21c4.53,0,8.53-1.22,12.02-3.67,3.49-2.45,5.23-6.13,5.23-11.07s-1.88-8.71-5.64-11.34c-3.76-2.63-9.1-4.91-16.03-6.86-6.93-1.95-11.95-3.64-15.08-5.09-3.12-1.45-6.09-3.35-8.9-5.7-5.62-4.71-8.42-12-8.42-21.87,0-8.06,2.87-14.99,8.62-20.78,5.75-5.79,13.6-8.69,23.57-8.69,4.8,0,9.8.7,15.01,2.11,5.21,1.41,8.44,2.11,9.71,2.11s2.4-.9,3.4-2.72h1.49l.95,27.44h-2.17c-4.35-7.88-8.9-14.19-13.65-18.95-4.75-4.75-9.92-7.13-15.48-7.13s-9.89,1.29-12.97,3.87c-3.08,2.58-4.62,6.02-4.62,10.32s1.83,7.61,5.5,9.92c3.67,2.31,8.17,4.19,13.51,5.64,5.34,1.45,8.85,2.44,10.53,2.99,1.67.54,3.76,1.29,6.25,2.24,2.49.95,4.53,1.95,6.11,2.99,1.58,1.04,3.26,2.36,5.03,3.94,1.77,1.59,3.15,3.33,4.14,5.23,2.44,4.35,3.67,9.51,3.67,15.48,0,9.78-3.06,17.64-9.17,23.57-6.11,5.93-14.15,8.9-24.11,8.9-5.16,0-11.07-.68-17.73-2.04-6.66-1.36-10.35-2.04-11.07-2.04-1.27,0-2.49,1.36-3.67,4.07h-1.9l-1.36-32.33h2.31c3.98,7.88,9.08,14.76,15.28,20.65,6.2,5.89,12.74,8.83,19.63,8.83Z"/>
    </g>
    <g>
      <path class="cls-1" d="m398.99,555.14h48.34v2.95h-14.23v88.08h4.83c7.61,0,13.67-2.33,18.19-6.98,4.52-4.65,9.11-11.82,13.76-21.48h2.82l-2.55,31.42h-71.16v-2.95h7.92v-88.08h-7.92v-2.95Z"/>
      <path class="cls-1" d="m483.58,555.14h40.95v2.55h-7.38v88.88h7.38v2.55h-40.95v-2.55h7.38v-88.88h-7.38v-2.55Z"/>
      <path class="cls-1" d="m534.74,555.14h40.15c12.44,0,21.77,1.68,27.99,5.04,6.22,3.36,9.33,9.02,9.33,16.98,0,12.26-7.39,19.6-22.15,22.02v.27c17.9,2.24,26.85,10.03,26.85,23.36,0,9.76-3.67,16.58-11.01,20.48-7.34,3.89-17.9,5.84-31.69,5.84h-39.47v-2.55h8.73v-88.88h-8.73v-2.55Zm34.91,2.55v41.35h3.49c4.65,0,7.9-1.41,9.73-4.23,1.83-2.82,2.75-7.14,2.75-12.96v-6.31c0-6.62-.81-11.26-2.42-13.9-1.61-2.64-4.7-3.96-9.26-3.96h-4.3Zm0,43.91v44.98h6.31c4.92,0,8.37-1.7,10.34-5.1,1.97-3.4,2.95-8.41,2.95-15.04v-7.12c0-5.91-1.21-10.34-3.63-13.29-2.42-2.95-6.71-4.43-12.89-4.43h-3.09Z"/>
      <path class="cls-1" d="m668.47,601.6h-7.12v44.98h8.73v2.55h-43.64v-2.55h8.73v-88.88h-8.73v-2.55h40.55c11.64,0,19.89.6,24.77,1.81,4.88,1.21,8.3,2.66,10.27,4.36,4.3,3.49,6.45,9.04,6.45,16.65s-1.88,13.05-5.64,16.31c-3.76,3.27-9.49,5.22-17.19,5.84v.4c7.25.99,12.31,3.13,15.17,6.44,2.86,3.31,4.3,8.86,4.3,16.65v7.12c0,4.66.25,7.79.74,9.4.49,1.61,1.54,2.42,3.16,2.42s2.89-.74,3.83-2.22c.94-1.48,1.81-4.59,2.62-9.33l2.28.27c-.99,7.61-2.71,12.71-5.17,15.31-2.46,2.6-7.36,3.89-14.7,3.89s-12.55-1.72-15.64-5.17c-3.09-3.44-4.63-9.91-4.63-19.4v-9.8c0-5.01-.65-8.68-1.95-11.01-1.3-2.33-3.69-3.49-7.18-3.49Zm-7.12-43.91v41.35h4.3c5.1,0,8.88-1.57,11.35-4.7,2.46-3.13,3.69-8.23,3.69-15.31v-3.89c0-7.07-1.19-11.75-3.56-14.03-2.37-2.28-6.16-3.42-11.35-3.42h-4.43Z"/>
      <path class="cls-1" d="m781.25,646.58l-9.8-29h-26.58l-10.34,29h10.07v2.55h-20.54v-2.55h6.31l34.24-92.24h11.01l33.84,92.24h6.18v2.55h-43.9v-2.55h9.53Zm-22.56-67.13l-12.62,35.18h24.3l-11.68-35.18Z"/>
      <path class="cls-1" d="m864.5,601.6h-7.12v44.98h8.73v2.55h-43.64v-2.55h8.73v-88.88h-8.73v-2.55h40.55c11.64,0,19.89.6,24.77,1.81,4.88,1.21,8.3,2.66,10.27,4.36,4.3,3.49,6.45,9.04,6.45,16.65s-1.88,13.05-5.64,16.31c-3.76,3.27-9.49,5.22-17.19,5.84v.4c7.25.99,12.31,3.13,15.17,6.44,2.86,3.31,4.3,8.86,4.3,16.65v7.12c0,4.66.25,7.79.74,9.4.49,1.61,1.54,2.42,3.16,2.42s2.89-.74,3.83-2.22c.94-1.48,1.81-4.59,2.62-9.33l2.28.27c-.99,7.61-2.71,12.71-5.17,15.31-2.46,2.6-7.36,3.89-14.7,3.89s-12.55-1.72-15.64-5.17c-3.09-3.44-4.63-9.91-4.63-19.4v-9.8c0-5.01-.65-8.68-1.95-11.01-1.3-2.33-3.69-3.49-7.18-3.49Zm-7.12-43.91v41.35h4.3c5.1,0,8.88-1.57,11.35-4.7,2.46-3.13,3.69-8.23,3.69-15.31v-3.89c0-7.07-1.19-11.75-3.56-14.03-2.37-2.28-6.16-3.42-11.35-3.42h-4.43Z"/>
      <path class="cls-1" d="m964.53,599.32l19.07-42.03h-13.56v-2.15h26.45v2.15h-8.86l-20.27,44.84v44.44h8.19v2.55h-42.56v-2.55h8.19v-41.89l-22.82-47.4h-6.31v-2.15h42.97v2.15h-8.73l18.26,42.03Z"/>
    </g>
  </g>
</svg>